<?xml version="1.0"?>
<svg xmlns="http://www.w3.org/2000/svg" id="Layer_1" data-name="Layer 1" viewBox="0 0 512 512" width="512" height="512"><title>Class</title><path d="M189.032,489H322.561A6.486,6.486,0,0,0,329,482.889V435H432.885A6.465,6.465,0,0,0,439,428.588V390.382C439,355.7,410.771,327,376.079,327H356.35c-25.562,0-48.642,16.136-58.543,39.429A62.015,62.015,0,0,0,265.754,358H245.931a62.188,62.188,0,0,0-32.278,8.5c-9.95-23.305-32.772-39.5-58-39.5H136.014C101.38,327,73,355.527,73,390.184v38.4A6.465,6.465,0,0,0,79.115,435H183v47.889A6.124,6.124,0,0,0,189.032,489ZM356.35,339h19.719C404.135,339,427,362.3,427,390.372V423H329v-2.493a63.464,63.464,0,0,0-20.979-46.94C315.371,353.168,334.647,339,356.35,339ZM245.94,370h19.8C293.811,370,317,392.421,317,420.5V477H195V420.319A50.505,50.505,0,0,1,245.94,370ZM85,423V390.193C85,362.155,107.985,339,136.024,339h19.618c21.357,0,40.591,14.231,48.02,34.662A63.081,63.081,0,0,0,183,420.309V423Z"/><path d="M51.705,308h68.446a45.306,45.306,0,0,0,25.708,8h.017a45.224,45.224,0,0,0,25.752-8h40.007c3.269,21,21.82,38,44.144,38h.056a44.389,44.389,0,0,0,31.57-13.147A45.647,45.647,0,0,0,299.958,308h39.986a46.446,46.446,0,0,0,25.746,8h.622a44.09,44.09,0,0,0,25.308-8H460.3a5.757,5.757,0,0,0,5.7-6V29.111A5.853,5.853,0,0,0,460.3,23H51.705A5.853,5.853,0,0,0,46,29.111V302A5.757,5.757,0,0,0,51.705,308Zm94.175-3.826a.073.073,0,0,0-.021,0,32.587,32.587,0,1,1,.02-65.174h.015a32.627,32.627,0,0,1,32.657,32.53C178.178,289.889,163.838,304.174,145.88,304.174ZM101.257,269H84V62H428V269H410.332c-1.14-23-20.71-42-44.636-42h-.013a44.255,44.255,0,0,0-44.591,42H287.021c-8.062-8-19.086-12-31.241-12h-.02c-11.767,0-22.831,4-31.223,12H190.5c-1.139-23-20.709-42-44.635-42h-.015C121.965,227,102.415,246,101.257,269Zm194.518,12h26.347a36.7,36.7,0,0,0,6.217,15H300.158A51.639,51.639,0,0,0,295.775,281Zm-106.417,0H215.79a50.474,50.474,0,0,0-4.355,15h-28.3A38.782,38.782,0,0,0,189.358,281Zm89.559,43.371A32.482,32.482,0,0,1,255.832,334h-.053a32.748,32.748,0,0,1-32.657-32.731A32.317,32.317,0,0,1,255.8,269h.013a32.532,32.532,0,0,1,32.658,32.476A31.982,31.982,0,0,1,278.917,324.371ZM366.221,304H365.7a32.5,32.5,0,1,1,.021-65h.013a32.636,32.636,0,0,1,32.659,32.628A32.174,32.174,0,0,1,366.221,304ZM58,35H454V296H403.176a37.607,37.607,0,0,0,6.171-15H433.6c3.313,0,6.4-2.383,6.4-5.7V55.807c0-3.313-3.087-5.807-6.4-5.807H78.4c-3.313,0-6.4,2.494-6.4,5.807V275.3c0,3.314,3.087,5.7,6.4,5.7H102.3a37.76,37.76,0,0,0,6.243,15H58Z"/><path d="M157.121,128.6,183,138.628v65.565a5.887,5.887,0,0,0,3.779,5.622,182.233,182.233,0,0,0,127.342,0A5.973,5.973,0,0,0,318,204.193V138.628l18-6.841v21.971a16.585,16.585,0,0,0-11.246,16A17.073,17.073,0,0,0,341.792,186.9,17.3,17.3,0,0,0,359.1,169.755,17.838,17.838,0,0,0,348,153.673v-29.92c0-.154-.228-.3-.24-.455.006-.114-.083-.226-.084-.341a6.052,6.052,0,0,0-3.984-5.575L252.467,83.86a6.053,6.053,0,0,0-4.154,0l-91.2,33.522a5.947,5.947,0,0,0-3.87,5.575A6.053,6.053,0,0,0,157.121,128.6ZM195,199.972V183.078a181.654,181.654,0,0,0,111,0v16.894A169.8,169.8,0,0,1,195,199.972Zm111-29.538a169.782,169.782,0,0,1-111,0V143.3l53.319,20.8a5.662,5.662,0,0,0,2.114.409,5.842,5.842,0,0,0,2.149-.409L306,143.3Zm35.684,4.466a5.145,5.145,0,1,1,5.144-5.145A5.152,5.152,0,0,1,341.684,174.9ZM250.37,95.885l74.242,27.289-14.383,5.6a5.8,5.8,0,0,0-.745.29L250.37,152.068l-59.111-23.005a5.855,5.855,0,0,0-.75-.292l-14.382-5.6Z"/></svg>
