<svg xmlns="http://www.w3.org/2000/svg" xmlns:xlink="http://www.w3.org/1999/xlink" id="Capa_1" x="0" y="0" version="1.1" viewBox="0 0 511.999 511.999" xml:space="preserve" style="enable-background:new 0 0 511.999 511.999"><g><g><path d="M476.535,242.091c-22.518-28.128-54.12-48.177-88.983-56.451c-5.374-1.272-10.764,2.046-12.038,7.421 c-1.275,5.374,2.047,10.763,7.42,12.038c64.218,15.241,109.068,72.053,109.068,138.157c0,78.294-63.697,141.991-141.991,141.991 S208.019,421.55,208.019,343.256c0-61.089,38.879-115.194,96.742-134.633c3.049-1.024,6.17-1.954,9.276-2.765 c5.344-1.395,8.544-6.857,7.15-12.2c-1.396-5.344-6.858-8.544-12.2-7.15c-3.549,0.926-7.113,1.989-10.594,3.158 c-15.414,5.178-29.645,12.513-42.408,21.6c-25.447-18.183-55.012-28.413-86.221-29.865l29.089-60.589 c1.691-3.522,1.176-7.706-1.318-10.712c-0.142-0.171-0.305-0.316-0.457-0.476c0.006-0.008,0.01-0.013,0.016-0.021l-41.18-43.414 c-2.523-2.66-6.299-3.729-9.842-2.777L35.991,92.905c-3.537,0.948-6.272,3.752-7.133,7.311l-14.062,58.217 c0.007,0.004,0.014,0.007,0.021,0.012c-0.053,0.22-0.124,0.433-0.162,0.658c-0.655,3.852,0.992,7.732,4.219,9.936l55.5,37.906 C27.92,236.788-0.264,288.094,0.002,343.974c0.425,89.064,73.006,161.227,161.976,161.219c0.256,0,0.527-0.001,0.784-0.002 c33.862-0.161,65.961-10.535,93.266-30.069c26.52,18.956,58.97,30.123,93.981,30.123c89.321,0,161.99-72.668,161.99-161.99 C512,306.586,499.405,270.659,476.535,242.091z M188.021,343.255c-0.001,32.312,9.513,62.442,25.881,87.744 c-15.534,9.208-33.19,14.109-51.427,14.196c-0.164,0.001-0.328,0.001-0.493,0.001c-56.013,0-101.718-45.434-101.985-101.509 c-0.269-56.238,45.268-102.21,101.507-102.478c0.167-0.001,0.331-0.001,0.498-0.001c18.429,0,36.202,4.872,51.874,14.161 C197.376,280.95,188.021,311.261,188.021,343.255z M239.828,224.425c-5.001,4.639-9.696,9.578-14.057,14.789 c-19.169-11.794-41.047-18.006-63.767-18.006c-0.198,0-0.396,0-0.596,0.001c-3.718,0.018-7.393,0.212-11.025,0.556l9.892-20.605 c0.327,0.035,0.656,0.052,0.99,0.052c0.016,0,0.032,0,0.049,0c0.234-0.001,0.468-0.002,0.702-0.002 C190.012,201.211,216.706,209.206,239.828,224.425z M143.772,189.331l0.854-50.382l26.779-7.176L143.772,189.331z M145.499,84.267 l25.522,26.905l-30.847,8.266l-14.123-29.96L145.499,84.267z M123.593,199.774l-28.534-47.542l16.241-4.352l13.233-3.546 L123.593,199.774z M100.923,96.21l5.499-1.473l14.122,29.96l-22.615,6.06l-9.286,2.489l-2.728-33.014L100.923,96.21z M46.904,110.685l19.38-5.193l2.728,33.014l-30.822,8.258L46.904,110.685z M48.133,164.805l26.833-7.19l25.953,43.242 L48.133,164.805z M162.667,485.192c-0.229,0.001-0.458,0.002-0.688,0.002c-77.979,0-141.606-63.251-141.978-141.315 c-0.247-51.858,27.456-99.23,72.529-124.533l18.841,12.868C69.107,251.566,39.764,294.36,40,343.784 c0.32,67.073,54.98,121.417,121.982,121.411c0.192,0,0.396,0,0.59-0.001c22.494-0.107,44.261-6.331,63.269-18.031 c4.373,5.217,9.067,10.152,14.053,14.781C216.974,477.056,190.502,485.059,162.667,485.192z"/></g></g><g><g><path d="M350.256,181.265h-0.246c-5.522,0-9.999,4.477-9.999,9.999c0,5.523,4.478,9.999,9.999,9.999h0.246 c5.522,0,9.999-4.477,9.999-9.999C360.255,185.742,355.778,181.265,350.256,181.265z"/></g></g><g><g><path d="M350.008,221.117c-67.321,0-122.091,54.771-122.091,122.092c0,23.465,6.534,45.886,18.979,65.416 c0.392,0.81,0.893,1.57,1.502,2.259c1.328,1.986,2.695,3.951,4.147,5.872c15.582,20.619,37.729,36.04,62.362,43.422 c5.29,1.585,10.862-1.417,12.449-6.708c1.586-5.29-1.418-10.863-6.708-12.449c-8.013-2.401-15.572-5.763-22.569-9.931 c17.113-26.415,26.047-56.899,25.896-88.659c-0.149-31.234-9.066-61.151-25.876-87.101c15.219-9.024,32.967-14.214,51.907-14.214 c56.296,0,102.095,45.799,102.095,102.094c0.003,44.756-29.907,84.978-72.732,97.812c-5.291,1.585-8.293,7.159-6.709,12.449 c1.299,4.333,5.272,7.132,9.574,7.132c0.95,0,1.917-0.137,2.874-0.423c24.634-7.382,46.782-22.804,62.364-43.422 c16.112-21.322,24.629-46.754,24.629-73.547C472.101,275.888,417.331,221.117,350.008,221.117z M256.015,382.782 c-5.227-12.306-8.099-25.72-8.099-39.573c0-14.073,2.862-27.49,8.036-39.701c5.21,12.337,7.965,25.652,8.03,39.208 C264.048,356.602,261.321,370.189,256.015,382.782z M303.98,342.526c0.13,27.419-7.479,53.741-22.035,76.643 c-5.187-4.681-9.878-9.877-14.009-15.488c10.608-18.544,16.148-39.503,16.045-61.059c-0.1-21.131-5.654-41.789-16.088-60.002 c4.147-5.606,8.853-10.772,14.036-15.419C296.243,289.704,303.851,315.547,303.98,342.526z"/></g></g><g><g><path d="M350.006,445.293c-5.522,0-9.999,4.477-9.999,9.999v0.103c0,5.523,4.478,9.999,9.999,9.999s9.999-4.477,9.999-9.999 v-0.103C360.005,449.769,355.528,445.293,350.006,445.293z"/></g></g><g><g><path d="M84.593,38.901l-6.627-24.732c-1.43-5.334-6.915-8.501-12.246-7.071c-5.335,1.43-8.5,6.913-7.071,12.247l6.627,24.732 c1.197,4.468,5.237,7.414,9.652,7.414c0.856,0,1.728-0.111,2.594-0.343C82.857,49.718,86.023,44.236,84.593,38.901z"/></g></g><g><g><path d="M50.024,61.591l-19.932-21.32c-3.77-4.034-10.099-4.248-14.133-0.476c-4.034,3.771-4.247,10.099-0.476,14.133 l19.932,21.32c1.969,2.106,4.634,3.171,7.307,3.171c2.446,0,4.899-0.893,6.827-2.695C53.582,71.954,53.794,65.625,50.024,61.591z"/></g></g><g><g><path d="M125.048,10.509c-5.392-1.185-10.728,2.225-11.913,7.619l-6.122,27.843c-1.187,5.394,2.225,10.727,7.619,11.913 c0.724,0.159,1.445,0.235,2.157,0.235c4.593,0,8.729-3.184,9.756-7.854l6.122-27.843 C133.854,17.028,130.441,11.695,125.048,10.509z"/></g></g></svg>