<svg id="Capa_1" enable-background="new 0 0 512 512" height="512" viewBox="0 0 512 512" width="512" xmlns="http://www.w3.org/2000/svg"><g><g><g><g><path d="m347.2 89.717c-11.871 0-21.184 13.236-21.184 13.236s-8.785-13.236-21.189-13.236c-12.065 0-21.917 9.952-22.562 22.001-.363 6.807 1.831 11.987 4.923 16.679 6.178 9.374 38.869 36.828 38.869 36.828s32.568-27.372 38.786-36.828c3.098-4.713 5.286-9.872 4.921-16.679-.645-12.05-10.498-22.001-22.564-22.001z" fill="#ffbecb"/></g></g><g><g><g><path d="m461.467 10c-16.271 0-29.036 18.142-29.036 18.142s-12.042-18.142-29.043-18.142c-16.537 0-30.041 13.64-30.925 30.155-.498 9.33 2.51 16.431 6.747 22.862 8.468 12.849 53.276 50.479 53.276 50.479s44.639-37.517 53.163-50.479c4.246-6.46 7.246-13.532 6.746-22.862-.885-16.515-14.389-30.155-30.928-30.155z" fill="#ff9eb1"/></g></g></g><g><g><g><g><g><path d="m280.943 444.413c13.885 6.982 29.485 10.672 45.113 10.672 26.83 0 52.054-10.449 71.027-29.421 18.974-18.973 29.423-44.2 29.423-71.033 0-26.832-10.45-52.06-29.423-71.034-18.977-18.977-44.204-29.427-71.034-29.427-15.625 0-31.222 3.69-45.105 10.668l-1.31.658-.921-1.14c-3.178-3.933-6.617-7.757-10.224-11.365-7.036-7.035-14.786-13.338-23.035-18.733l-2.325-1.522 2.325-1.522c23.941-15.668 51.81-23.952 80.593-23.953 39.364-.002 76.374 15.325 104.211 43.158 57.453 57.462 57.453 150.959 0 208.42-27.832 27.834-64.839 43.161-104.201 43.161-28.78 0-56.652-8.284-80.603-23.955-8.457-5.533-16.403-11.994-23.615-19.206-3.698-3.698-7.225-7.618-10.481-11.65-21.072-26.044-32.678-58.914-32.678-92.551s11.606-66.51 32.679-92.558l.921-1.138 1.308.657c9.91 4.973 18.95 11.51 26.867 19.428 2.636 2.635 5.128 5.407 7.403 8.235l.92 1.143-.923 1.141c-29.571 36.562-29.564 89.621.017 126.162" fill="#fff3da"/></g></g></g><g><g><path d="m62.638 458.841c27.837 27.831 64.846 43.158 104.212 43.158 28.384 0 55.88-8.057 79.601-23.309-.333-.214-.665-.429-.996-.646-8.457-5.533-16.403-11.994-23.615-19.206-3.698-3.698-7.225-7.618-10.482-11.651-.478-.59-.95-1.184-1.418-1.781-13.37 6.339-28.22 9.68-43.094 9.68-26.835 0-52.061-10.45-71.03-29.424-18.973-18.973-29.423-44.199-29.423-71.033 0-26.833 10.449-52.06 29.423-71.034s44.199-29.422 71.027-29.421c15.629 0 31.229 3.69 45.113 10.671 9.562 4.799 18.284 11.108 25.927 18.75 2.543 2.544 4.947 5.217 7.144 7.947 29.097 35.955 29.576 87.891 1.431 124.373.464.6.935 1.197 1.414 1.789 2.187 2.727 4.588 5.401 7.144 7.957 7.643 7.642 16.365 13.951 25.927 18.75.668.336 1.34.664 2.016.985 20.174-25.757 31.26-57.901 31.26-90.775 0-33.637-11.606-66.507-32.678-92.551-3.257-4.032-6.784-7.953-10.481-11.65-7.212-7.212-15.157-13.673-23.615-19.206-23.952-15.673-51.819-23.955-80.592-23.955-.004 0-.007 0-.013.001-39.365.003-76.371 15.331-104.202 43.16-57.453 57.462-57.453 150.96 0 208.421z" fill="#ffe6b4"/></g></g></g></g><g><g><g><g><path d="m86.794 136.374-.664.951 64.743 69.935h32.021l64.743-69.935-.664-.951z" fill="#99ebfa"/></g></g><g><g><path d="m207.26 79.573h-80.754l-39.712 56.801h160.179z" fill="#f0e6e2"/></g></g></g><g><g><g><path d="m166.883 136.374-40.012-56.801h80.389z" fill="#ccf5fc"/></g></g></g></g></g><g><g><g><path d="m297.808 219.96c-4.121 0-7.911-2.628-9.36-6.483-1.443-3.837-.34-8.334 2.759-11.034 3.201-2.789 7.912-3.247 11.592-1.137 3.559 2.041 5.557 6.229 4.869 10.281-.808 4.759-5.015 8.373-9.86 8.373z"/></g></g><path d="m437.329 243.347c-24.874-24.87-56.337-40.36-90.986-44.797-5.549-.712-10.63 3.282-11.216 8.884-.572 5.467 3.578 10.287 9.029 10.999 30.08 3.929 57.402 17.429 79.032 39.055 53.555 53.563 53.555 140.717 0 194.279-25.944 25.945-60.438 40.233-97.131 40.233-26.45 0-52.073-7.502-74.178-21.707-.008-.006-.017-.011-.025-.017l-.926-.6c-7.885-5.158-15.292-11.184-22.017-17.908-3.444-3.444-6.727-7.092-9.765-10.852-.005-.006-1.102-1.38-1.244-1.562-18.858-24.019-29.222-54.022-29.222-84.717 0-27.665 8.569-55.163 24.203-77.898 6.503 3.847 12.515 8.515 17.929 13.928 1.031 1.031 2.034 2.084 3.007 3.155-12.17 18.502-18.571 40.677-18.114 63.079.482 23.585 8.559 46.589 22.799 65.076.013.018 1.35 1.718 1.567 1.986 2.411 3.007 5.06 5.958 7.874 8.772 8.398 8.397 17.985 15.33 28.488 20.604.006.003 1.485.733 1.588.782.122.059 25.021 10.964 48.036 10.964 29.863 0 57.917-11.772 78.863-33.122 19.939-20.323 31.304-47.751 31.582-76.22.292-29.918-11.222-58.091-32.346-79.216-20.866-20.865-48.604-32.356-78.105-32.356-13.62 0-27.42 2.598-40.144 7.536-2.486-2.871-5.088-5.669-7.774-8.356-7.694-7.694-16.177-14.592-25.21-20.502-15.623-10.223-32.805-17.502-50.813-21.621l52.868-57.108c3.196-3.453 3.554-8.667.858-12.523l-.665-.951c-.003-.004-.006-.009-.009-.013l-39.704-56.789s0-.001-.001-.002c-1.595-2.642-4.445-4.275-7.53-4.27-.397.001-.653.001-.665.001h-80.754c-3.265 0-6.325 1.594-8.196 4.27l-39.682 56.756c-.012.016-.023.032-.035.049l-.664.951c-2.694 3.856-2.336 9.068.86 12.52l52.839 57.076c-28.586 6.503-54.827 20.921-76.064 42.156-61.352 61.361-61.352 161.201 0 222.562 0 0 .001 0 .001.001 29.725 29.719 69.245 46.086 111.282 46.086 28.15 0 55.535-7.44 79.601-21.573 24.072 14.136 51.434 21.573 79.607 21.573 42.035 0 81.552-16.368 111.273-46.09 61.352-61.36 61.352-161.201-.001-222.563zm-242.973 197.464c-8.871 2.813-18.205 4.276-27.51 4.276-24.164 0-46.878-9.409-63.959-26.495-17.084-17.084-26.494-39.8-26.494-63.961 0-24.163 9.409-46.878 26.494-63.963 17.085-17.084 39.798-26.493 63.957-26.492 9.333 0 18.653 1.461 27.52 4.278-16.611 25.437-25.683 55.724-25.683 86.184-.001 30.66 9.031 60.725 25.675 86.173zm52.065-129.163c14.251 26.599 14.3 59.311.01 85.97-14.466-26.688-14.55-59.106-.01-85.97zm143.59-20.98c17.085 17.086 26.494 39.802 26.494 63.963 0 24.162-9.409 46.877-26.494 63.961-17.084 17.084-39.798 26.492-63.957 26.492-9.334 0-18.655-1.461-27.52-4.277 16.637-25.455 25.683-55.592 25.683-86.185 0-30.662-9.033-60.729-25.675-86.174 8.878-2.812 18.242-4.279 27.505-4.279 24.161 0 46.877 9.411 63.964 26.499zm-162.231-164.294h-41.519l20.932-29.446zm-39.897-36.801-20.962 29.489-20.773-29.489zm-61.164 7.148 20.888 29.653h-41.62zm98.914 49.653-47.108 50.886h-23.282l-47.108-50.886zm-58.784 345.625c-36.694 0-71.193-14.287-97.14-40.229-53.555-53.563-53.555-140.716 0-194.278 25.942-25.941 60.438-40.229 97.132-40.232h.095c26.794.016 52.739 7.734 75.034 22.323 7.886 5.16 15.294 11.185 22.018 17.909 3.448 3.448 6.736 7.103 9.779 10.869 19.637 24.271 30.452 54.906 30.452 86.261 0 27.786-8.546 55.138-24.204 77.898-6.503-3.847-12.514-8.515-17.928-13.928-1.033-1.034-2.038-2.088-3.012-3.161 11.977-18.211 18.371-39.934 18.132-62.007-.269-24.845-8.938-49.055-24.389-68.148-2.416-3.003-5.062-5.947-7.865-8.75-8.402-8.402-17.995-15.338-28.506-20.613-15.271-7.679-32.424-11.737-49.604-11.737h-.004c-29.498 0-57.233 11.489-78.094 32.35-20.863 20.861-32.352 48.6-32.352 78.105 0 29.503 11.489 57.241 32.351 78.103 20.858 20.863 48.595 32.354 78.102 32.354 13.677 0 27.408-2.589 40.147-7.533 2.485 2.871 16.363 16.477 20.967 20.153-18.883 9.384-39.741 14.291-61.111 14.291z"/><g><g><path d="m432.485 123.496c-2.286 0-4.572-.781-6.431-2.342-4.701-3.948-46.184-38.962-55.194-52.634-3.942-5.982-9.099-15.485-8.384-28.897 1.19-22.22 19.16-39.623 40.911-39.623 12.472 0 22.571 6.9 29.115 13.083 6.612-6.177 16.738-13.083 28.965-13.083 21.752 0 39.723 17.403 40.913 39.621.717 13.382-4.436 22.896-8.375 28.889-9.066 13.787-50.402 48.706-55.086 52.642-1.86 1.562-4.147 2.344-6.434 2.344zm-29.098-103.496c-10.935 0-20.329 9.281-20.939 20.69-.313 5.879 1.215 10.911 5.112 16.825 4.924 7.471 27.962 28.31 44.922 42.859 16.899-14.514 39.856-35.316 44.812-42.852 3.951-6.012 5.434-10.889 5.115-16.832-.611-11.409-10.005-20.69-20.942-20.69-9.044 0-18.321 10.292-20.858 13.897-1.9 2.701-4.995 4.265-8.314 4.245-3.302-.045-6.369-1.717-8.196-4.469-2.555-3.777-11.309-13.673-20.712-13.673z"/></g></g><g><g><path d="m326.056 175.225c-2.286 0-4.572-.781-6.431-2.342-5.646-4.741-34.144-28.902-40.787-38.983-3.086-4.684-7.123-12.134-6.559-22.715.945-17.647 15.242-31.468 32.548-31.468 8.931 0 16.197 4.25 21.299 8.604 5.157-4.337 12.428-8.604 21.075-8.604 17.307 0 31.604 13.821 32.549 31.466.565 10.558-3.468 18.016-6.55 22.707-6.686 10.165-35.084 34.264-40.709 38.991-1.861 1.562-4.148 2.344-6.435 2.344zm-21.229-75.508c-6.565 0-12.207 5.623-12.577 12.535-.198 3.714.754 6.798 3.288 10.643 3.137 4.76 18.055 18.425 30.515 29.188 12.411-10.734 27.275-24.377 30.435-29.181 2.535-3.857 3.489-6.944 3.291-10.649-.37-6.913-6.012-12.536-12.578-12.536-4.998 0-11.024 6.174-13.006 8.991-1.9 2.701-5.001 4.254-8.314 4.245-3.302-.045-6.369-1.717-8.196-4.469-1.527-2.238-7.242-8.767-12.858-8.767z"/></g></g></g></g></svg>