<svg height="471pt" viewBox="-71 0 471 471.98945" width="471pt" xmlns="http://www.w3.org/2000/svg"><path d="m327.984375 106.8125c1.363281-3.617188-.054687-7.691406-3.371094-9.679688l-103.375-62.023437-24.160156-14.496094-.070313-.0625h-.066406l-32.328125-19.417969c-2.183593-1.300781-4.851562-1.492187-7.199219-.519531l-152 64c-2.976562 1.242188-4.917968 4.152344-4.917968 7.375v64c-.003906 2.742188 1.398437 5.292969 3.710937 6.761719 1.285157.808594 2.769531 1.238281 4.289063 1.238281.871094-.046875 1.730468-.238281 2.542968-.566406.136719 0 .261719-.046875.398438-.089844.136719-.039062.3125 0 .464844-.101562l133.679687-62.914063 78.113281 14.199219c.167969 0 .328126.058594.488282.089844l58.070312 10.550781-15.382812 32.097656c-1.546875 3.25-2.347656 6.800782-2.351563 10.398438v181.714844c-.019531 6.367187 2.511719 12.476562 7.03125 16.964843l1.976563 1.976563 7.398437 22.207031c.988281 2.898437 3.554688 4.964844 6.59375 5.3125v8.160156c-4.417969 0-8 3.582031-8 8s3.582031 8 8 8v8h-8c-4.417969 0-8 3.582031-8 8s3.582031 8 8 8h8v8h-8c-4.417969 0-8 3.582031-8 8s3.582031 8 8 8h8v8c-4.417969 0-8 3.582031-8 8s3.582031 8 8 8h16c4.417969 0 8-3.582031 8-8s-3.582031-8-8-8v-8h8c4.417969 0 8-3.582031 8-8s-3.582031-8-8-8h-8v-8h8c4.417969 0 8-3.582031 8-8s-3.582031-8-8-8h-8v-8c4.417969 0 8-3.582031 8-8s-3.582031-8-8-8v-8h.976563c3.445312.003907 6.503906-2.203125 7.589844-5.472656l7.402343-22.207031 1.972657-1.976563c4.519531-4.488281 7.050781-10.597656 7.035156-16.964843v-181.464844c-.003906-3.859375-.933594-7.65625-2.714844-11.082032l-13.664062-26.222656 6.945312 1.253906c3.804688.714844 7.570312-1.410156 8.921875-5.039062zm-311.488281-29.511719 19.070312-8-19.070312 35.71875zm11.132812 40.800781 31.328125-58.71875 17.152344-7.203124-30.6875 57.601562zm41.992188-19.710937 29.875-56 17.199218-7.25-29.273437 54.898437zm59.761718-28.121094-17.753906 8.359375 28.449219-53.351562 17.214844-7.257813zm20.976563-5.328125 21.71875-40.65625 10.488281 6.296875-19.511718 36.65625zm41.816406 7.601563-12.59375-2.289063 16.730469-31.433594 10.496094 6.296876zm29.214844 5.308593-12.679687-2.300781 11.832031-22.203125 10.519531 6.304688zm29.183594 5.304688-12.65625-2.292969 6.878906-12.945312 10.523437 6.3125zm16.519531 3.007812 1.960938-3.695312 9.6875 5.808594zm45.402344 243.203126c-.007813 2.117187-.851563 4.148437-2.34375 5.652343l-3.3125 3.3125c-.878906.878907-1.542969 1.949219-1.9375 3.128907l-6.175782 18.527343h-4.464843l-6.175781-18.527343c-.394532-1.179688-1.054688-2.25-1.933594-3.128907l-3.3125-3.3125c-1.496094-1.503906-2.335938-3.535156-2.34375-5.652343v-9.378907h32zm0-25.378907h-32v-136h32zm0-156.085937v4.085937h-32v-4.367187c.003906-1.195313.277344-2.378906.796875-3.457032l14.515625-30.285156 15.796875 30.328125c.589843 1.140625.894531 2.410157.890625 3.695313zm0 0"/><path d="m236.496094 174.933594c3.71875-2.246094 4.96875-7.046875 2.8125-10.820313-2.15625-3.769531-6.929688-5.132812-10.75-3.066406l-14.328125 8.183594c-53.105469 30.34375-118.300781 30.34375-171.40625 0l-14.328125-8.183594c-3.824219-2.066406-8.59375-.703125-10.75 3.066406-2.15625 3.773438-.90625 8.574219 2.8125 10.820313l14.320312 8.191406.296875.152344-15.089843 10.054687c-3.675782 2.453125-4.667969 7.421875-2.214844 11.097657 2.453125 3.675781 7.417968 4.667968 11.09375 2.214843l22.699218-15.128906c8.085938 3.613281 16.417969 6.648437 24.933594 9.089844l-9.726562 9.726562c-2.078125 2.011719-2.914063 4.984375-2.183594 7.78125.734375 2.796875 2.917969 4.980469 5.714844 5.714844 2.796875.730469 5.773437-.101563 7.78125-2.183594l16-16c.191406-.253906.367187-.523437.527344-.800781 5.886718 1.082031 11.832031 1.859375 17.816406 2.402344v24.742187c0 4.417969 3.582031 8 8 8 4.417968 0 8-3.582031 8-8v-24c11.34375-.023437 22.660156-1.074219 33.816406-3.136719.15625.28125.335938.546876.527344.800782l16 16c3.136718 3.03125 8.128906 2.988281 11.214844-.097656 3.085937-3.085938 3.128906-8.074219.097656-11.214844l-9.730469-9.726563c8.515625-2.441406 16.847656-5.476562 24.9375-9.085937l22.695313 15.125c3.675781 2.453125 8.644531 1.460937 11.097656-2.214844s1.460937-8.644531-2.21875-11.097656l-15.085938-10.054688.296875-.152344zm0 0"/></svg>