<svg height="453pt" viewBox="-75 0 453 453.968" width="453pt" xmlns="http://www.w3.org/2000/svg"><path d="m147.042969 49.214844 19.511719-36.671875-10.488282-6.296875-21.71875 40.65625zm0 0"/><path d="m296.484375 129.878906c0-1.285156-.308594-2.554687-.90625-3.695312l-15.796875-30.328125-14.496094 30.289062c-.523437 1.078125-.796875 2.257813-.800781 3.457031v4.367188h32zm0 0"/><path d="m176.164062 54.503906 14.632813-27.425781-10.496094-6.292969-16.730469 31.429688zm0 0"/><path d="m113.371094 52.230469 27.90625-52.230469-17.210938 7.238281-28.445312 53.355469zm0 0"/><path d="m264.484375 149.96875h32v136h-32zm0 0"/><path d="m215.050781 41.632812-10.519531-6.304687-11.832031 22.183594 12.679687 2.304687zm0 0"/><path d="m71.410156 71.984375 29.273438-54.894531-17.199219 7.246094-29.871094 56.015624zm0 0"/><path d="m221.90625 62.824219 12.65625 2.296875 4.746094-8.929688-10.519532-6.3125zm0 0"/><path d="m29.410156 91.742188 30.691406-57.566407-17.152343 7.222657-31.328125 58.722656zm0 0"/><path d="m253.042969 64.433594-1.957031 3.695312 11.644531 2.109375zm0 0"/><path d="m.484375 59.28125v27.71875l19.070313-35.753906zm0 0"/><path d="m220.484375 156.910156c3.71875-2.242187 4.96875-7.046875 2.8125-10.816406-2.15625-3.773438-6.925781-5.136719-10.75-3.070312l-14.328125 8.183593c-53.105469 30.347657-118.300781 30.347657-171.40625 0l-14.328125-8.183593c-3.824219-2.066407-8.59375-.703126-10.75 3.070312-2.15625 3.769531-.90625 8.574219 2.8125 10.816406l14.320313 8.195313.296874.152343-15.089843 10.054688c-3.675781 2.453125-4.667969 7.417969-2.214844 11.09375 2.453125 3.679688 7.421875 4.667969 11.097656 2.21875l22.695313-15.128906c8.089844 3.609375 16.421875 6.648437 24.9375 9.089844l-9.730469 9.726562c-2.078125 2.007812-2.914063 4.984375-2.179687 7.78125.730468 2.796875 2.914062 4.980469 5.710937 5.710938 2.796875.734374 5.773437-.101563 7.78125-2.179688l16-16c.191406-.257812.371094-.523438.527344-.800781 5.890625 1.078125 11.832031 1.855469 17.816406 2.398437v24.746094c0 4.417969 3.582031 8 8 8s8-3.582031 8-8v-24c11.34375-.023438 22.660156-1.074219 33.816406-3.136719.160157.277344.335938.542969.527344.800781l16 16c3.140625 3.03125 8.128906 2.988282 11.214844-.097656 3.085937-3.085937 3.128906-8.074218.097656-11.214844l-9.726563-9.726562c8.511719-2.441406 16.847657-5.480469 24.933594-9.089844l22.695313 15.128906c3.679687 2.453126 8.644531 1.460938 11.097656-2.21875 2.453125-3.675781 1.460937-8.640624-2.214844-11.09375l-15.089843-10.054687.296874-.152344zm0 0"/><path d="m295.484375 413.96875h-8v-8h8c4.417969 0 8-3.582031 8-8s-3.582031-8-8-8h-8v-8c4.417969 0 8-3.582031 8-8s-3.582031-8-8-8v-38.296875l1.40625-4.230469c.394531-1.179687 1.058594-2.25 1.9375-3.128906l3.3125-3.3125c1.492187-1.503906 2.335937-3.535156 2.34375-5.65625v-9.375h-32v9.375c.007813 2.121094.851563 4.152344 2.34375 5.65625l3.3125 3.3125c.5625.644531 1.015625 1.378906 1.34375 2.167969v43.488281c-4.417969 0-8 3.582031-8 8s3.582031 8 8 8v8h-8c-4.417969 0-8 3.582031-8 8s3.582031 8 8 8h8v8h-8c-4.417969 0-8 3.582031-8 8s3.582031 8 8 8h8v8c-4.417969 0-8 3.582031-8 8s3.582031 8 8 8h16c4.417969 0 8-3.582031 8-8s-3.582031-8-8-8v-8h8c4.417969 0 8-3.582031 8-8s-3.582031-8-8-8zm0 0"/></svg>