<?xml version="1.0"?>
<svg xmlns="http://www.w3.org/2000/svg" id="line" viewBox="0 0 64 64" width="512" height="512"><path d="M9.293,51.707l10,10a1,1,0,0,0,1.414,0l4-4a1,1,0,0,0,0-1.414L24.415,56l3-2.99H40a1,1,0,0,0,.707-.293l13-13a1,1,0,0,0,0-1.414,6.656,6.656,0,0,0-9.414,0l-3.707,3.707H37V39.02a3.015,3.015,0,0,0-3.008-3.011L22.955,36h0a1,1,0,0,0-.71.3L16.29,42.307a1,1,0,0,0-.29.7V45.6l-1,.993-.295-.3a1,1,0,0,0-1.414,0l-4,4A1,1,0,0,0,9.293,51.707ZM17.7,46.72a1,1,0,0,0,.3-.709V43.422L23.371,38l10.619.009A1.013,1.013,0,0,1,35,39.02v2.991H27v2H41a1,1,0,0,0,.707-.293l4-4a4.662,4.662,0,0,1,5.8-.632L39.586,51.011H27a1,1,0,0,0-.706.292L23,54.587,16.416,48ZM14,48.414,22.586,57,20,59.586,14.414,54l1.293-1.293-1.414-1.414L13,52.586,11.414,51Z"/><path d="M40.013,18A9,9,0,0,0,49,9.013V5a1,1,0,0,0-1-1H43.987A9,9,0,0,0,35,12.987v3.6l-2,2-2-2V11.9A9.91,9.91,0,0,0,21.1,2H16a1,1,0,0,0-1,1V8.1A9.91,9.91,0,0,0,24.9,18h4.687L32,20.414v5.655a9.954,9.954,0,0,0-7.888,5.345l1.776.918A8,8,0,0,1,41,36h2a10.012,10.012,0,0,0-9-9.949V20.414L36.414,18ZM37,12.987A7,7,0,0,1,43.987,6H47V9.013A7,7,0,0,1,40.013,16H37ZM29,16H24.9A7.908,7.908,0,0,1,17,8.1V4h4.1A7.908,7.908,0,0,1,29,11.9Z"/></svg>
