<?xml version="1.0" encoding="iso-8859-1"?>
<!-- Generator: Adobe Illustrator 16.0.0, SVG Export Plug-In . SVG Version: 6.00 Build 0)  -->
<!DOCTYPE svg PUBLIC "-//W3C//DTD SVG 1.1//EN" "http://www.w3.org/Graphics/SVG/1.1/DTD/svg11.dtd">
<svg version="1.1" id="Capa_1" xmlns="http://www.w3.org/2000/svg" xmlns:xlink="http://www.w3.org/1999/xlink" x="0px" y="0px"
	 width="369.288px" height="369.289px" viewBox="0 0 369.288 369.289" style="enable-background:new 0 0 369.288 369.289;"
	 xml:space="preserve">
<g>
	<g>
		<path d="M61.001,0C40.002,0,22.975,17.027,22.975,38.026c0,20.997,17.027,38.028,38.026,38.028c2.725,0,5.362-0.314,7.923-0.847
			L177.21,269.913l-34.69,67.77c-15.881,40.347-11.671,42.326,9.396,4.439l32.729-58.849l32.735,58.849
			c21.066,37.887,25.283,35.907,9.39-4.439l-34.688-67.77L300.368,75.208c2.562,0.541,5.198,0.847,7.919,0.847
			c21.007,0,38.026-17.031,38.026-38.028C346.313,17.027,329.294,0,308.287,0c-20.999,0-38.026,17.027-38.026,38.026
			c0,10.748,4.492,20.41,11.67,27.327l-97.294,190.028L87.358,65.345c7.163-6.915,11.664-16.571,11.664-27.327
			C99.029,17.027,82.002,0,61.001,0z"/>
	</g>
</g>
<g>
</g>
<g>
</g>
<g>
</g>
<g>
</g>
<g>
</g>
<g>
</g>
<g>
</g>
<g>
</g>
<g>
</g>
<g>
</g>
<g>
</g>
<g>
</g>
<g>
</g>
<g>
</g>
<g>
</g>
</svg>
