<svg xmlns="http://www.w3.org/2000/svg" width="142" height="140" fill="none" viewBox="0 0 142 140"><path fill="#FC5655" d="M71 0C31.8482 0 0 31.4027 0 70C0 108.597 31.8482 140 71 140C110.152 140 142 108.597 142 70C142 31.4027 110.152 0 71 0ZM99.2255 72.4525L57.809 98.7025C57.3236 99.0128 56.7631 99.1668 56.2084 99.1668C55.7231 99.1668 55.2319 99.047 54.7929 98.8107C53.8394 98.298 53.25 97.318 53.25 96.25V43.75C53.25 42.682 53.8394 41.702 54.7929 41.1893C55.7289 40.6823 56.9018 40.7135 57.809 41.2975L99.2255 67.5475C100.069 68.0829 100.583 69.0088 100.583 70C100.583 70.9912 100.069 71.9168 99.2255 72.4525Z"/><path fill="#fff" d="M101.462 62.808C104.654 64.7287 104.7 69.3414 101.546 71.325L55.8361 100.073C52.5253 102.155 48.2133 99.8007 48.1745 95.8896L47.6135 39.3065C47.5747 35.3954 51.8392 32.9562 55.1907 34.9724L101.462 62.808Z"/></svg>