<svg height="512" viewBox="0 0 128 128" width="512" xmlns="http://www.w3.org/2000/svg"><g><path d="m58.997 69.676-8.135-3.476-20.66 48.348 10.617-2.333 5.652 9.285 20.66-48.348z" fill="#fdd82e"/><path d="m69.003 69.676 8.135-3.476 20.66 48.348-10.617-2.333-5.652 9.285-20.66-48.348z" fill="#fdd82e"/><path d="m84.957 101.515a1.749 1.749 0 0 1 -1.61-1.063l-2.347-5.495a1.75 1.75 0 1 1 3.219-1.375l2.348 5.5a1.75 1.75 0 0 1 -1.608 2.438z" fill="#f2b620"/><circle cx="64" cy="46.308" fill="#f2b620" r="39.808"/><circle cx="64" cy="46.308" fill="#fdd82e" r="33.808"/><path d="m64 31.091 3.777 11.624h12.223l-9.889 7.185 3.778 11.625-9.889-7.185-9.889 7.185 3.778-11.625-9.889-7.185h12.223z" fill="#f2b620"/></g></svg>