<svg height="512" viewBox="0 0 128 128" width="512" xmlns="http://www.w3.org/2000/svg"><g><path d="m98.093 29.792h-68.186a5.708 5.708 0 0 0 -5.707 5.708v44.334a5.709 5.709 0 0 0 5.708 5.708h25.76l8.332 12.666 8.333-12.666h25.76a5.709 5.709 0 0 0 5.708-5.708v-44.334a5.708 5.708 0 0 0 -5.708-5.708z" fill="#fb4d4f"/><path d="m52.049 42.52 3.931 7.966a1.572 1.572 0 0 0 1.185.86l8.791 1.278a1.573 1.573 0 0 1 .872 2.683l-6.362 6.2a1.573 1.573 0 0 0 -.452 1.392l1.5 8.755a1.574 1.574 0 0 1 -2.283 1.659l-7.861-4.133a1.573 1.573 0 0 0 -1.464 0l-7.863 4.134a1.573 1.573 0 0 1 -2.282-1.659l1.5-8.755a1.57 1.57 0 0 0 -.452-1.392l-6.361-6.2a1.573 1.573 0 0 1 .872-2.683l8.79-1.278a1.572 1.572 0 0 0 1.185-.86l3.931-7.966a1.574 1.574 0 0 1 2.823-.001z" fill="#fed943"/><g fill="#eaf2f9"><path d="m76.042 45.847h10.333a1.75 1.75 0 0 0 0-3.5h-10.333a1.75 1.75 0 0 0 0 3.5z"/><path d="m76.042 54.83h17.833a1.75 1.75 0 0 0 0-3.5h-17.833a1.75 1.75 0 0 0 0 3.5z"/><path d="m93.875 60.312h-17.833a1.75 1.75 0 0 0 0 3.5h17.833a1.75 1.75 0 0 0 0-3.5z"/><path d="m93.875 69.293h-17.833a1.75 1.75 0 0 0 0 3.5h17.833a1.75 1.75 0 0 0 0-3.5z"/></g></g></svg>