<svg height="512" viewBox="0 0 58 56" width="512" xmlns="http://www.w3.org/2000/svg"><g id="Page-1" fill="none" fill-rule="evenodd"><g id="014---Winking-Star" fill-rule="nonzero" transform="translate(0 -1)"><path id="Shape" d="m30.735 51.8 11.631 4.845c1.4395295.6040411 3.0894631.4171896 4.3574557-.4934726s1.9721017-2.4144655 1.8595443-3.9715274l-.983-12.84c-.0885539-1.1656589.2842005-2.319474 1.038-3.213l8.305-9.859c.9965932-1.1842942 1.3090861-2.8000949.8259207-4.2705716s-1.6931211-2.5860353-3.1979207-2.9484284l-12.351-3.018c-1.1569441-.2828009-2.1543144-1.0132947-2.773-2.031l-6.6-10.848c-.816538-1.3415927-2.273457-2.16041371-3.844-2.16041371s-3.027462.81882101-3.844 2.16041371l-6.606 10.848c-.6194696 1.0161911-1.6167314 1.7451668-2.773 2.027l-12.354 3.022c-1.50479961.3623931-2.71475532 1.4779517-3.1979207 2.9484284-.48316537 1.4704767-.17067248 3.0862774.8259207 4.2705716l8.305 9.859c.7548774.893068 1.128725 2.046932 1.041 3.213l-.98 12.842c-.11255744 1.5570619.5915517 3.0608652 1.8595443 3.9715274s2.9179262 1.0975137 4.3574557.4934726l11.628-4.847c1.1103333-.4630003 2.3596667-.4630003 3.47 0z" fill="#f3d55b"/><path id="Shape" d="m56.95 26.27-8.31 9.86c-.7544338.8920875-1.1279591 2.0449877-1.04 3.21l.98 12.84c.1138119 1.5562606-.588529 3.0600119-1.8549767 3.9716095-1.2664478.9115977-2.9153691 1.1003008-4.3550233.4983905l-11.63-4.85c-.5522375-.2258542-1.143364-.3413617-1.74-.34v-50.46003282c1.5709469-.00597958 3.0293646.8143804 3.84 2.16003282l6.61 10.84c.6134187 1.0210481 1.6116138 1.7525774 2.77 2.03l12.35 3.02c1.5054868.3615914 2.7166429 1.4765035 3.2013682 2.9469728.4847254 1.4704693.1739816 3.0870603-.8213682 4.2730272z" fill="#f0c419"/><path id="Shape" d="m17.053 23.053c-.4043959-.0000863-.7689341-.2437275-.923678-.6173454-.1547439-.373618-.0692299-.8036603.216678-1.0896546 2.3155673-2.3037614 5.7898904-2.9878945 8.806-1.734.5141771.2018601.7673601.7823229.5655 1.2965s-.7823229.7673601-1.2965.5655c-2.2764255-.9546024-4.9035317-.4474025-6.661 1.286-.1874927.1875494-.4418052.2929434-.707.293z" fill="#e57e25"/><circle id="Oval" cx="22" cy="27" fill="#ecf0f1" r="4"/><path id="Shape" d="m40.947 23.053c-.2651948-.0000566-.5195073-.1054506-.707-.293-1.7574683-1.7334025-4.3845745-2.2406024-6.661-1.286-.5141771.2018601-1.0946399-.0513229-1.2965-.5655s.0513229-1.0946399.5655-1.2965c3.0161096-1.2538945 6.4904327-.5697614 8.806 1.734.2859079.2859943.3714219.7160366.216678 1.0896546-.1547439.3736179-.5192821.6172591-.923678.6173454z" fill="#e57e25"/><path id="Shape" d="m39 28c-.262482-.0013707-.5139013-.1058893-.7-.291-.5917888-.6388486-1.423172-1.001984-2.294-1.001984s-1.7022112.3631354-2.294 1.001984c-.3923789.3789722-1.0160848.3735524-1.4018186-.0121814s-.3911536-1.0094397-.0121814-1.4018186c.9565988-1.0318245 2.2999666-1.6182608 3.707-1.6182608s2.7504012.5864363 3.707 1.6182608c.2851253.2868237.3694145.7171518.213569 1.0903493-.1558456.3731976-.5211398.6157817-.925569.6146507z" fill="#35495e"/><path id="Shape" d="m36.85 36.14c-.5617711 3.9424665-3.9377106 6.8714611-7.92 6.8714611s-7.3582289-2.9289946-7.92-6.8714611c-.0408059-.2884984.0462452-.5804464.2383855-.7994864.1921404-.21904.4702587-.3433852.7616145-.3405136h13.84c.290251.0004594.5662754.1257674.7576781.3439665.1914028.2181991.2796813.5081965.2423219.7960335z" fill="#802d40"/><path id="Shape" d="m33.93 41.23c-2.8710778 2.3220677-6.9625098 2.3634789-9.88.1.3281824-2.4604162 2.4145915-4.3057423 4.8966714-4.3308645 2.4820799-.0251223 4.6054125 1.777595 4.9833286 4.2308645z" fill="#ff5364"/><circle id="Oval" cx="23" cy="27" fill="#35495e" r="2"/><circle id="Oval" cx="22" cy="26" fill="#ecf0f1" r="1"/></g></g></svg>